# xmcd CD database file
#
# Track frame offsets:
#	150
#	16348
#	39244
#	48641
#	73521
#	86931
#	104799
#	117309
#	126558
#	137662
#	157191
#	176168
#	193736
#	224412
#	251189
#
# Disc length: 3838 seconds
#
# Revision: 0
# Processed by: cddbd v1.5.2PL0 Copyright (c) Steve Scherf et al.
# Submitted via: CDex 1.70beta2
#
DISCID=f00efc0f
DTITLE=高木里代子 - Salone
DYEAR=2015
DGENRE=Jazz
TTITLE0=Open the Eyes
TTITLE1=サングリア
TTITLE2=Third Rail
TTITLE3=オレンジの衝動
TTITLE4=SAKURA
TTITLE5=Photograph
TTITLE6=Lush Life
TTITLE7=Honey Suckle Rose
TTITLE8=Blue Bossa
TTITLE9=Ampao
TTITLE10=Polkadots and Moonbeams
TTITLE11=Old Castle
TTITLE12=青空
TTITLE13=Cherokee
TTITLE14=Micky's Love Ballad - I Love You Porgy
EXTD=YEAR: 2015
EXTT0=
EXTT1=
EXTT2=
EXTT3=
EXTT4=
EXTT5=
EXTT6=
EXTT7=
EXTT8=
EXTT9=
EXTT10=
EXTT11=
EXTT12=
EXTT13=
EXTT14=
PLAYORDER=
